<svg xmlns="http://www.w3.org/2000/svg" viewBox="0 0 231 231">
  <path d="M0 0m40 29l29 -29h-50v19h-19v50h50v-19h19v-50l-29 29v30h-30v-30z" fill="white" />
  <path d="M81 0m40 29l29 -29h-50v19h-19v50h50v-19h19v-50l-29 29v30h-30v-30z" fill="white" />
  <path d="M162 0m40 29l29 -29h-50v19h-19v50h50v-19h19v-50l-29 29v30h-30v-30z" fill="white" />
  <path d="M0 81m40 29l29 -29h-50v19h-19v50h50v-19h19v-50l-29 29v30h-30v-30z" fill="white" />
  <path d="M81 81m40 29l29 -29h-50v19h-19v50h50v-19h19v-50l-29 29v30h-30v-30z" fill="white" />
  <path d="M162 81m40 29l29 -29h-50v19h-19v50h50v-19h19v-50l-29 29v30h-30v-30z" fill="white" />
  <path d="M0 162m40 29l29 -29h-50v19h-19v50h50v-19h19v-50l-29 29v30h-30v-30z" fill="white" />
  <path d="M81 162m40 29l29 -29h-50v19h-19v50h50v-19h19v-50l-29 29v30h-30v-30z" fill="white" />
  <path d="M162 162m40 29l29 -29h-50v19h-19v50h50v-19h19v-50l-29 29v30h-30v-30z" fill="white" />
</svg>