<svg xmlns="http://www.w3.org/2000/svg" viewBox="0 0 231 231">
  <path d="M0 0m50 19h-50v50h50z" fill="white" />
  <path d="M0 0m58 11h-39v-11h50v50h-11z" fill="white" />
  <path d="M81 0m50 19h-50v50h50z" fill="white" />
  <path d="M81 0m58 11h-39v-11h50v50h-11z" fill="white" />
  <path d="M162 0m50 19h-50v50h50z" fill="white" />
  <path d="M162 0m58 11h-39v-11h50v50h-11z" fill="white" />
  <path d="M0 81m50 19h-50v50h50z" fill="white" />
  <path d="M0 81m58 11h-39v-11h50v50h-11z" fill="white" />
  <path d="M81 81m50 19h-50v50h50z" fill="white" />
  <path d="M81 81m58 11h-39v-11h50v50h-11z" fill="white" />
  <path d="M162 81m50 19h-50v50h50z" fill="white" />
  <path d="M162 81m58 11h-39v-11h50v50h-11z" fill="white" />
  <path d="M0 162m50 19h-50v50h50z" fill="white" />
  <path d="M0 162m58 11h-39v-11h50v50h-11z" fill="white" />
  <path d="M81 162m50 19h-50v50h50z" fill="white" />
  <path d="M81 162m58 11h-39v-11h50v50h-11z" fill="white" />
  <path d="M162 162m50 19h-50v50h50z" fill="white" />
  <path d="M162 162m58 11h-39v-11h50v50h-11z" fill="white" />
</svg>